<?xml version="1.0" encoding="UTF-8"?>
<svg id="Layer_1__x28_1:1_x29_" xmlns="http://www.w3.org/2000/svg" version="1.1" viewBox="0 0 485 280.1">
  <!-- Generator: Adobe Illustrator 30.2.1, SVG Export Plug-In . SVG Version: 2.1.1 Build 1)  -->
  <defs>
    <style>
      .st0 {
        fill: #0071ce;
      }
    </style>
  </defs>
  <g>
    <g>
      <path class="st0" d="M456.7,224.6l-15-16.7-15.6,16.7h-96.4v-77.9h-30.6l38.1-87.1h36.9l13.3,30v-30h46.2l8.1,22.5,8.1-22.5h35.2v-13.3c0-8.1-6.3-14.4-14.4-14.4H161.3c-8.1,0-14.4,6.3-14.4,14.4v187.5c0,8.1,6.3,14.4,14.4,14.4h309.3c8.1,0,14.4-6.3,14.4-14.4v-9.2h-28.3Z"/>
      <g>
        <polygon class="st0" points="460.8 215.3 485 215.3 453.3 181.3 485 147.8 461.4 147.8 441.2 169.8 421.6 147.8 397.3 147.8 429.6 181.9 397.3 215.3 421 215.3 441.2 193.4 460.8 215.3"/>
        <polygon class="st0" points="358.7 199.8 358.7 189.4 396.7 189.4 396.7 173.8 358.7 173.8 358.7 163.4 397.3 163.4 397.3 147.8 340.2 147.8 340.2 215.3 397.3 215.3 397.3 199.8 358.7 199.8"/>
        <polygon class="st0" points="467.1 138 484.4 138 484.4 69.9 456.7 70.5 441.7 112.6 426.2 70.5 397.3 70.5 397.3 138 415.8 138 415.8 90.7 433.1 138 449.2 138 467.1 90.7 467.1 138"/>
        <path class="st0" d="M367.9,70.5h-23.7l-30,67.5h20.2l5.8-13.3h31.2l5.8,13.3h20.8l-30-67.5ZM346.5,109.2l9.2-21.9,9.2,21.9h-18.5Z"/>
      </g>
    </g>
    <polygon class="st0" points="468.3 179.6 485 198 485 161.1 468.3 179.6"/>
  </g>
  <rect class="st0" x="68.1" y="-32.9" width="418.1" height="79.7"/>
  <rect class="st0" x="70.4" y="237.5" width="428.2" height="56.7"/>
  <rect class="st0" x="-36.1" y="-45.9" width="195.3" height="372.3"/>
</svg>